<?xml version="1.0" encoding="UTF-8" standalone="no"?>
<!-- Created with Inkscape (http://www.inkscape.org/) -->

<svg
   width="54"
   height="56"
   viewBox="0 0 11 13"
   version="1.1"
   id="svg5"
   xml:space="preserve"
   inkscape:version="1.2.2 (732a01da63, 2022-12-09)"
   sodipodi:docname="sqlvector.svg"
   xmlns:inkscape="http://www.inkscape.org/namespaces/inkscape"
   xmlns:sodipodi="http://sodipodi.sourceforge.net/DTD/sodipodi-0.dtd"
   xmlns="http://www.w3.org/2000/svg"
   xmlns:svg="http://www.w3.org/2000/svg"><sodipodi:namedview
     id="namedview7"
     pagecolor="#ffffff"
     bordercolor="#000000"
     borderopacity="0.25"
     inkscape:showpageshadow="2"
     inkscape:pageopacity="0.0"
     inkscape:pagecheckerboard="0"
     inkscape:deskcolor="#d1d1d1"
     inkscape:document-units="px"
     showgrid="false"
     inkscape:zoom="8.0533109"
     inkscape:cx="46.999303"
     inkscape:cy="23.096091"
     inkscape:window-width="1366"
     inkscape:window-height="745"
     inkscape:window-x="-8"
     inkscape:window-y="-8"
     inkscape:window-maximized="1"
     inkscape:current-layer="layer1" /><defs
     id="defs2" /><g
     inkscape:label="Capa 1"
     inkscape:groupmode="layer"
     id="layer1"
     transform="translate(0.65047566,0.97415548)"><g
       id="g192"
       inkscape:label="sqlgroup"
       transform="matrix(0.07515554,0,0,0.07306152,-1.8905838,-4.5505726)"
       style="stroke-width:13.4953"><path
         style="fill:#fff;stroke-width:14.2821"
         d="m 101.66719,190.2786 c -1.63016,-1.63017 -2.537947,-3.58611 -2.333145,-5.02708 0.446971,-3.14486 2.734215,-2.99459 4.370325,0.28712 1.56138,3.13181 5.73206,3.57405 7.48583,0.79375 1.68157,-2.66584 -0.34556,-5.34839 -4.71729,-6.2425 -7.110105,-1.45417 -9.701081,-9.2125 -4.73506,-14.17852 3.46653,-3.46653 8.30026,-3.43761 11.80853,0.0707 1.63016,1.63016 2.53794,3.5861 2.33314,5.02708 -0.44697,3.14485 -2.73421,2.99458 -4.37032,-0.28713 -1.56138,-3.13181 -5.73206,-3.57405 -7.48582,-0.79375 -1.68157,2.66584 0.34555,5.34839 4.71728,6.2425 7.1101,1.45417 9.70108,9.21251 4.73507,14.17852 -3.46654,3.46653 -8.30027,3.43761 -11.80854,-0.0706 z m 21.22741,0.0608 c -2.36532,-2.36533 -2.58781,-3.41505 -2.58781,-12.20904 0,-8.804 0.22064,-9.84186 2.59772,-12.21894 3.47225,-3.47224 8.3001,-3.43778 11.82227,0.0844 2.59938,2.59939 2.67135,3.04579 2.33314,14.47237 l -0.34897,11.79024 -5.61427,0.33439 c -4.79529,0.28561 -5.99177,-0.0431 -8.20208,-2.25342 z m 5.32705,-3.76737 c -1.46333,-1.61697 -1.63929,-2.44058 -0.7182,-3.36167 0.92109,-0.92109 1.75652,-0.73443 3.40992,0.76187 l 2.18993,1.98186 -0.31284,-8.29855 c -0.24608,-6.52765 -0.70807,-8.54698 -2.16493,-9.4627 -1.34695,-0.84665 -2.35721,-0.84665 -3.70416,0 -1.45305,0.91334 -1.91907,2.92894 -2.16299,9.35533 -0.31811,8.38087 0.62449,11.16552 3.77952,11.16552 1.35285,0 1.30038,-0.35532 -0.31625,-2.14167 z m 13.73144,5.04006 c -0.30146,-0.78556 -0.41363,-7.35501 -0.24928,-14.59876 0.24659,-10.86872 0.57625,-13.17047 1.88631,-13.17047 1.30369,0 1.64072,2.21383 1.88522,12.38359 l 0.29772,12.38359 6.05228,0.31641 c 4.53362,0.23701 6.05228,0.71475 6.05228,1.90391 0,2.20028 -15.09582,2.94131 -15.92453,0.78172 z m -74.033806,-13.1216 c -9.462456,-2.02317 -18.962649,-7.05025 -21.703011,-11.48424 -1.992981,-3.22471 -2.109488,-5.29913 -2.109488,-37.55922 0,-39.600301 -0.231487,-38.607831 10.311571,-44.209541 16.159825,-8.586 43.650362,-8.586 59.810194,0 10.5776,5.62007 10.38793,4.81388 10.06244,42.771981 -0.24181,28.19966 -0.49677,32.65839 -1.86754,32.65839 -1.17592,0 -1.72469,-1.64629 -2.11666,-6.35 -0.32152,-3.85819 -0.87004,-5.82297 -1.39782,-5.00696 -1.31398,2.03159 -10.04785,6.12191 -16.59385,7.77138 -3.39344,0.85508 -11.116977,1.45646 -18.520837,1.44208 -14.092888,-0.0274 -24.303406,-2.39643 -31.563909,-7.32354 l -3.890256,-2.64 v 7.51606 c 0,7.23598 0.139706,7.64781 3.749173,11.05198 5.471305,5.1601 15.197411,7.91585 30.382075,8.6083 8.972046,0.40915 12.435416,0.93722 12.435416,1.89608 0,0.73095 -0.753326,1.61808 -1.674058,1.97139 -3.007018,1.1539 -17.738191,0.50552 -25.31344,-1.11414 z M 105.7097,151.74505 c 4.47015,-1.41492 8.48702,-3.55625 10.84791,-5.78286 3.62684,-3.42055 3.74918,-3.78756 3.74918,-11.2479 0,-7.25947 -0.10868,-7.61644 -1.85209,-6.08376 -6.60283,5.80474 -18.33528,8.75886 -34.660417,8.72717 -14.092888,-0.0274 -24.303406,-2.39644 -31.563909,-7.32355 l -3.890256,-2.64 v 7.23372 c 0,8.54056 1.71066,11.4008 8.900202,14.8812 11.874493,5.74834 34.129267,6.775 48.46938,2.23598 z m -50.005332,-9.12197 c -1.124775,-1.35527 -1.055279,-1.94693 0.39958,-3.40179 1.64267,-1.64267 1.879669,-1.64267 3.522339,0 1.454859,1.45486 1.524355,2.04652 0.39958,3.40179 -0.748875,0.90234 -1.721212,1.64062 -2.16075,1.64062 -0.439537,0 -1.411874,-0.73828 -2.160749,-1.64062 z M 105.7097,130.57839 c 4.47015,-1.41492 8.48702,-3.55625 10.84791,-5.78286 3.62684,-3.42055 3.74918,-3.78756 3.74918,-11.24791 0,-7.25946 -0.10868,-7.61643 -1.85209,-6.08375 -6.60283,5.80474 -18.33528,8.75886 -34.660417,8.72716 -14.092888,-0.0274 -24.303406,-2.39643 -31.563909,-7.32354 l -3.890256,-2.64 v 7.23371 c 0,8.54057 1.71066,11.40081 8.900202,14.8812 11.874493,5.74835 34.129267,6.775 48.46938,2.23599 z m -50.005332,-9.12197 c -1.124775,-1.35528 -1.055279,-1.94693 0.39958,-3.40179 1.64267,-1.64267 1.879669,-1.64267 3.522339,0 1.454859,1.45486 1.524355,2.04651 0.39958,3.40179 -0.748875,0.90233 -1.721212,1.64061 -2.16075,1.64061 -0.439537,0 -1.411874,-0.73828 -2.160749,-1.64061 z m 50.005332,-12.0447 c 7.93155,-2.51053 14.59709,-7.84444 14.59709,-11.680901 0,-4.1533 -6.26927,-9.14417 -14.8855,-11.85011 -6.488997,-2.03788 -10.18825,-2.47117 -21.097841,-2.47117 -10.90959,0 -14.608843,0.43329 -21.097836,2.47117 -8.399683,2.63793 -14.885495,7.67817 -14.885495,11.56777 0,5.336101 8.118126,10.745561 20.273166,13.508911 9.476976,2.15451 27.821191,1.39018 37.096416,-1.54567 z m -50.005332,54.37803 c -1.124775,-1.35528 -1.055279,-1.94693 0.39958,-3.40179 1.64267,-1.64267 1.879669,-1.64267 3.522339,0 1.454859,1.45486 1.524355,2.04651 0.39958,3.40179 -0.748875,0.90233 -1.721212,1.64061 -2.16075,1.64061 -0.439537,0 -1.411874,-0.73828 -2.160749,-1.64061 z"
           id="path183" /></g></g></svg>
