<svg width="104" height="71" viewBox="0 0 304 101" fill="none" xmlns="http://www.w3.org/2000/svg">
<path d="M290.744 91.2974C265.185 96.0756 187.568 98.0557 151 98.7399C139.102 98.9625 131.55 99.0479 131.55 99.0479L16 100.749L65.5001 97.2492C65.5001 97.2492 99.6585 95.2676 123.5 94.7493C169.5 93.7493 302.502 85.2493 290.5 74.7493C278.498 64.2493 324.618 84.9646 290.744 91.2974Z" fill="white"/>
<path d="M61.6364 36.091C61.6364 28.7273 60.3068 22.3637 57.6477 17C54.9886 11.6364 51.3409 7.50002 46.7045 4.59093C42.0682 1.68184 36.7727 0.227295 30.8182 0.227295C24.8636 0.227295 19.5682 1.68184 14.9318 4.59093C10.2955 7.50002 6.64773 11.6364 3.98864 17C1.32955 22.3637 0 28.7273 0 36.091C0 43.4546 1.32955 49.8182 3.98864 55.1819C6.64773 60.5455 10.2955 64.6819 14.9318 67.5909C19.5682 70.5 24.8636 71.9546 30.8182 71.9546C36.7727 71.9546 42.0682 70.5 46.7045 67.5909C51.3409 64.6819 54.9886 60.5455 57.6477 55.1819C60.3068 49.8182 61.6364 43.4546 61.6364 36.091ZM53.179 27C54.9303 34.0696 52.4432 47.2387 50.4205 51.3978C48.4205 55.5569 45.7045 58.7046 42.2727 60.8409C38.8636 62.9773 35.0455 64.0455 30.8182 64.0455C26.5909 64.0455 22.7614 62.9773 19.3295 60.8409C15.9205 58.7046 13.2045 55.5569 11.1818 51.3978C9.18182 47.2387 8.18182 42.1364 8.18182 36.091C8.18182 30.0455 9.18182 24.9432 11.1818 20.7841C13.2045 16.625 15.9205 13.4773 19.3295 11.3409C22.7614 9.20457 26.5909 8.13639 30.8182 8.13639C35.0455 8.13639 38.8636 9.20457 42.2727 11.3409C44.9351 12.9983 35.679 14 33.179 19.5C32.4248 21.5 31.6919 26.6449 33.179 28C42.679 36.6567 36.179 30.5 35.679 28C32.679 17.1449 49.7588 13.1942 53.179 27Z" fill="white"/>
<path d="M75.8523 1.18184H85.9432L106.261 49.5L107.646 52.6565C108.71 55.0821 112.166 55.0393 113.17 52.588L134.216 1.18184H144.307V71H136.398V17.9546H135.716L115.35 67.4689C114.471 69.6054 112.39 71 110.08 71C107.769 71 105.688 69.6054 104.809 67.4689L84.4432 17.9546H83.7614V71H75.8523V1.18184Z" fill="white"/>
<path d="M164.122 71H155.259L180.895 1.18184H189.622L215.259 71H206.395L185.531 12.2273H184.986L164.122 71ZM167.395 43.7273H203.122V51.2273L206.395 55.1818L167.395 43.7273Z" fill="white"/>
<path d="M226.134 71V1.18184H249.724C255.179 1.18184 259.656 2.11366 263.156 3.9773C266.656 5.8182 269.247 8.3523 270.929 11.5796C272.611 14.8068 273.452 18.4773 273.452 22.5909C273.452 26.7046 272.611 30.3523 270.929 33.5341C269.247 36.7159 266.668 39.2159 263.19 41.0341C259.713 42.8296 255.27 43.7273 249.861 43.7273H230.77V36.0909H249.588C253.315 36.0909 256.315 35.5455 258.588 34.4546C260.883 33.3637 262.543 31.8182 263.565 29.8182C264.611 27.7955 265.133 25.3864 265.133 22.5909C265.133 19.7955 264.611 17.3523 263.565 15.2614C262.52 13.1705 260.849 11.5568 258.554 10.4205C256.259 9.26139 253.224 8.68184 249.452 8.68184H234.588V71H226.134ZM258.997 39.6364L275.179 71V73.5H272.179L266.361 71L249.452 39.6364H258.997Z" fill="white"/>
</svg>
