<svg width="50" height="50" viewBox="0 0 50 50" fill="none" xmlns="http://www.w3.org/2000/svg">
<g clip-path="url(#clip0_1_2)">
<path d="M41.166 35.0833L37.4368 27.625C37.2702 27.25 37.166 26.8542 37.166 26.4583V20.6667C37.166 14.2917 32.3952 9.04167 26.2285 8.27083V5.5625C26.2285 4.70833 25.5202 4 24.666 4C23.8118 4 23.1035 4.70833 23.1035 5.5625V8.27083C16.9368 9.04167 12.166 14.2917 12.166 20.6667V26.4583C12.166 26.8542 12.0618 27.25 11.8952 27.625L8.16601 35.0833C7.91601 35.5625 7.95767 36.125 8.22851 36.5833C8.52017 37.0625 9.02017 37.3333 9.56184 37.3333H18.416V39.4167C18.416 42.8542 21.2285 45.6667 24.666 45.6667C28.1035 45.6667 30.916 42.8542 30.916 39.4167V37.3333H39.7702C40.3118 37.3333 40.8118 37.0625 41.1035 36.5833C41.3743 36.125 41.416 35.5625 41.166 35.0833ZM27.791 39.4167C27.791 41.1458 26.3952 42.5417 24.666 42.5417C22.9368 42.5417 21.541 41.1458 21.541 39.4167V37.3333H27.791V39.4167ZM12.0827 34.2083L14.6868 29.0208C15.0827 28.2292 15.291 27.3333 15.291 26.4583V20.6667C15.291 15.5 19.4993 11.2917 24.666 11.2917C29.8327 11.2917 34.041 15.5 34.041 20.6667V26.4583C34.041 27.3333 34.2493 28.2292 34.6452 29.0208L37.2493 34.2083H12.0827Z" fill="#0f0"/>
</g>
<defs>
<clipPath id="clip0_1_2">
<rect width="50" height="50" fill="white"/>
</clipPath>
</defs>
</svg>
