<svg width="62" height="72" viewBox="0 0 62 72" fill="none" xmlns="http://www.w3.org/2000/svg">
<path d="M61.6364 35.8637C61.6364 28.5 60.3068 22.1364 57.6477 16.7727C54.9886 11.4091 51.3409 7.2727 46.7045 4.3636C42.0682 1.4545 36.7727 0 30.8182 0C24.8636 0 19.5682 1.4545 14.9318 4.3636C10.2955 7.2727 6.64773 11.4091 3.98864 16.7727C1.32955 22.1364 0 28.5 0 35.8637C0 43.2273 1.32955 49.5907 3.98864 54.9547C6.64773 60.3177 10.2955 64.4547 14.9318 67.3637C19.5682 70.2727 24.8636 71.7277 30.8182 71.7277C36.7727 71.7277 42.0682 70.2727 46.7045 67.3637C51.3409 64.4547 54.9886 60.3177 57.6477 54.9547C60.3068 49.5907 61.6364 43.2273 61.6364 35.8637ZM53.179 26.7727C54.9303 33.8423 52.4432 47.0117 50.4205 51.1707C48.4205 55.3297 45.7045 58.4777 42.2727 60.6137C38.8636 62.7497 35.0455 63.8177 30.8182 63.8177C26.5909 63.8177 22.7614 62.7497 19.3295 60.6137C15.9205 58.4777 13.2045 55.3297 11.1818 51.1707C9.18182 47.0117 8.18182 41.9091 8.18182 35.8637C8.18182 29.8182 9.18182 24.7159 11.1818 20.5568C13.2045 16.3977 15.9205 13.25 19.3295 11.1136C22.7614 8.9773 26.5909 7.9091 30.8182 7.9091C35.0455 7.9091 38.8636 8.9773 42.2727 11.1136C44.9351 12.771 35.679 13.7727 33.179 19.2727C32.4248 21.2727 31.6919 26.4176 33.179 27.7727C42.679 36.4294 36.179 30.2727 35.679 27.7727C32.679 16.9176 49.7588 12.9669 53.179 26.7727Z" fill="white"/>
</svg>
