<svg width="32" height="32" viewBox="0 0 304 101" fill="none" xmlns="http://www.w3.org/2000/svg">
<path d="M131.417 89.7727L126.644 72.3182H128.792L132.44 86.5341H132.61L136.326 72.3182H138.712L142.428 86.5341H142.599L146.246 72.3182H148.394L143.621 89.7727H141.44L137.587 75.8636H137.451L133.599 89.7727H131.417ZM151.028 89.7727V72.3182H161.562V74.1932H153.141V80.0909H161.016V81.9659H153.141V87.8977H161.698V89.7727H151.028ZM165.371 89.7727V72.3182H171.474C172.69 72.3182 173.692 72.5284 174.482 72.9488C175.272 73.3636 175.86 73.9233 176.246 74.6278C176.633 75.3267 176.826 76.1022 176.826 76.9545C176.826 77.7045 176.692 78.3238 176.425 78.8125C176.164 79.3011 175.817 79.6875 175.386 79.9716C174.96 80.2557 174.496 80.4659 173.996 80.6023V80.7727C174.531 80.8068 175.067 80.9943 175.607 81.3352C176.147 81.6761 176.599 82.1648 176.962 82.8011C177.326 83.4375 177.508 84.2159 177.508 85.1363C177.508 86.0113 177.309 86.7983 176.911 87.4971C176.513 88.196 175.886 88.75 175.028 89.1591C174.17 89.5682 173.053 89.7727 171.678 89.7727H165.371ZM167.485 87.8977H171.678C173.059 87.8977 174.039 87.6307 174.619 87.0966C175.204 86.5568 175.496 85.9034 175.496 85.1363C175.496 84.5454 175.346 84 175.045 83.5C174.744 82.9943 174.315 82.5909 173.758 82.2898C173.201 81.9829 172.542 81.8295 171.781 81.8295H167.485V87.8977ZM167.485 79.9886H171.406C172.042 79.9886 172.616 79.8636 173.127 79.6136C173.644 79.3636 174.053 79.0113 174.354 78.5568C174.661 78.1023 174.815 77.5682 174.815 76.9545C174.815 76.1875 174.548 75.5369 174.013 75.0028C173.479 74.463 172.633 74.1932 171.474 74.1932H167.485V79.9886Z" fill="white"/>
<path d="M290.744 91.0697C265.185 95.8487 187.568 97.8287 151 98.5127C139.102 98.7347 131.55 98.8207 131.55 98.8207L16 100.522L65.5001 97.0217C65.5001 97.0217 99.6585 95.0407 123.5 94.5217C169.5 93.5217 302.502 85.0217 290.5 74.5217C278.498 64.0217 324.618 84.7377 290.744 91.0697Z" fill="white"/>
<path d="M61.6364 35.8637C61.6364 28.5 60.3068 22.1364 57.6477 16.7727C54.9886 11.4091 51.3409 7.2727 46.7045 4.3636C42.0682 1.4545 36.7727 0 30.8182 0C24.8636 0 19.5682 1.4545 14.9318 4.3636C10.2955 7.2727 6.64773 11.4091 3.98864 16.7727C1.32955 22.1364 0 28.5 0 35.8637C0 43.2273 1.32955 49.5907 3.98864 54.9547C6.64773 60.3177 10.2955 64.4547 14.9318 67.3637C19.5682 70.2727 24.8636 71.7277 30.8182 71.7277C36.7727 71.7277 42.0682 70.2727 46.7045 67.3637C51.3409 64.4547 54.9886 60.3177 57.6477 54.9547C60.3068 49.5907 61.6364 43.2273 61.6364 35.8637ZM53.179 26.7727C54.9303 33.8423 52.4432 47.0117 50.4205 51.1707C48.4205 55.3297 45.7045 58.4777 42.2727 60.6137C38.8636 62.7497 35.0455 63.8177 30.8182 63.8177C26.5909 63.8177 22.7614 62.7497 19.3295 60.6137C15.9205 58.4777 13.2045 55.3297 11.1818 51.1707C9.18182 47.0117 8.18182 41.9091 8.18182 35.8637C8.18182 29.8182 9.18182 24.7159 11.1818 20.5568C13.2045 16.3977 15.9205 13.25 19.3295 11.1136C22.7614 8.9773 26.5909 7.9091 30.8182 7.9091C35.0455 7.9091 38.8636 8.9773 42.2727 11.1136C44.9351 12.771 35.679 13.7727 33.179 19.2727C32.4248 21.2727 31.6919 26.4176 33.179 27.7727C42.679 36.4294 36.179 30.2727 35.679 27.7727C32.679 16.9176 49.7588 12.9669 53.179 26.7727Z" fill="white"/>
<path d="M75.8523 0.954498H85.9432L106.261 49.2727L107.646 52.4287C108.71 54.8547 112.166 54.8117 113.17 52.3607L134.216 0.954498H144.307V70.7727H136.398V17.7273H135.716L115.35 67.2417C114.471 69.3777 112.39 70.7727 110.08 70.7727C107.769 70.7727 105.688 69.3777 104.809 67.2417L84.4432 17.7273H83.7614V70.7727H75.8523V0.954498Z" fill="white"/>
<path d="M164.122 70.7727H155.259L180.895 0.954498H189.622L215.259 70.7727H206.395L185.531 12H184.986L164.122 70.7727ZM167.395 43.5H203.122V50.9997L206.395 54.9547L167.395 43.5Z" fill="white"/>
<path d="M226.134 70.7727V0.954498H249.724C255.179 0.954498 259.656 1.8864 263.156 3.75C266.656 5.5909 269.247 8.12499 270.929 11.3523C272.611 14.5795 273.452 18.25 273.452 22.3636C273.452 26.4773 272.611 30.125 270.929 33.3068C269.247 36.4886 266.668 38.9886 263.19 40.8068C259.713 42.6023 255.27 43.5 249.861 43.5H230.77V35.8636H249.588C253.315 35.8636 256.315 35.3182 258.588 34.2273C260.883 33.1364 262.543 31.5909 263.565 29.5909C264.611 27.5682 265.133 25.1591 265.133 22.3636C265.133 19.5682 264.611 17.125 263.565 15.0341C262.52 12.9432 260.849 11.3295 258.554 10.1932C256.259 9.0341 253.224 8.4545 249.452 8.4545H234.588V70.7727H226.134ZM258.997 39.4091L275.179 70.7727V73.2727H272.179L266.361 70.7727L249.452 39.4091H258.997Z" fill="white"/>
</svg>
